<?xml version="1.0" encoding="utf-8" standalone="no"?>
<!DOCTYPE svg PUBLIC "-//W3C//DTD SVG 1.1//EN"
  "http://www.w3.org/Graphics/SVG/1.1/DTD/svg11.dtd">
<svg xmlns:xlink="http://www.w3.org/1999/xlink" width="858.757262pt" height="694.797188pt" viewBox="0 0 858.757262 694.797188" xmlns="http://www.w3.org/2000/svg" version="1.1">
 <metadata>
  <rdf:RDF xmlns:dc="http://purl.org/dc/elements/1.1/" xmlns:cc="http://creativecommons.org/ns#" xmlns:rdf="http://www.w3.org/1999/02/22-rdf-syntax-ns#">
   <cc:Work>
    <dc:type rdf:resource="http://purl.org/dc/dcmitype/StillImage"/>
    <dc:date>2026-09-30T13:15:18.916947</dc:date>
    <dc:format>image/svg+xml</dc:format>
    <dc:creator>
     <cc:Agent>
      <dc:title>Matplotlib v3.11.1, https://matplotlib.org/</dc:title>
     </cc:Agent>
    </dc:creator>
   </cc:Work>
  </rdf:RDF>
 </metadata>
 <defs>
  <style type="text/css">*{stroke-linejoin: round; stroke-linecap: butt}</style>
 </defs>
 <g id="figure_1">
  <g id="patch_1">
   <path d="M 0 694.797188 
L 858.757262 694.797188 
L 858.757262 0 
L 0 0 
z
" style="fill: #ffffff"/>
  </g>
  <g id="axes_1">
   <g id="patch_2">
    <path d="M 174.009012 205.663343 
Q 262.985737 219.562987 345.596351 186.617786 
" clip-path="url(#pfbbcd0b2e4)" style="fill: none; stroke: #000000; stroke-linecap: round"/>
    <path d="M 340.248789 186.166587 
L 345.596351 186.617786 
L 342.026855 190.625116 
z
" clip-path="url(#pfbbcd0b2e4)" style="stroke: #000000; stroke-linecap: round"/>
   </g>
   <g id="patch_3">
    <path d="M 159.050059 198.417559 
Q 111.110426 156.505901 49.820028 143.970415 
" clip-path="url(#pfbbcd0b2e4)" style="fill: none; stroke: #000000; stroke-linecap: round"/>
    <path d="M 54.04177 147.283554 
L 49.820028 143.970415 
L 55.003585 142.580905 
z
" clip-path="url(#pfbbcd0b2e4)" style="stroke: #000000; stroke-linecap: round"/>
   </g>
   <g id="patch_4">
    <path d="M 48.796695 143.314687 
Q 164.199791 157.811345 269.395133 110.874321 
" clip-path="url(#pfbbcd0b2e4)" style="fill: none; stroke: #000000; stroke-linecap: round"/>
    <path d="M 264.033756 110.638444 
L 269.395133 110.874321 
L 265.989605 115.021896 
z
" clip-path="url(#pfbbcd0b2e4)" style="stroke: #000000; stroke-linecap: round"/>
   </g>
   <g id="patch_5">
    <path d="M 282.574317 114.339543 
Q 306.683598 154.669765 344.691629 177.215327 
" clip-path="url(#pfbbcd0b2e4)" style="fill: none; stroke: #ff0000; stroke-width: 2.5; stroke-linecap: round"/>
    <path d="M 341.787713 172.702315 
L 344.691629 177.215327 
L 339.338871 176.830653 
z
" clip-path="url(#pfbbcd0b2e4)" style="fill: #ff0000; stroke: #ff0000; stroke-width: 2.5; stroke-linecap: round"/>
   </g>
   <g id="patch_6">
    <path d="M 185.925461 45.1188 
Q 220.43363 85.396583 267.505129 102.966501 
" clip-path="url(#pfbbcd0b2e4)" style="fill: none; stroke: #ff0000; stroke-width: 2.5; stroke-linecap: round"/>
    <path d="M 263.847448 99.039496 
L 267.505129 102.966501 
L 262.168916 103.536443 
z
" clip-path="url(#pfbbcd0b2e4)" style="fill: #ff0000; stroke: #ff0000; stroke-width: 2.5; stroke-linecap: round"/>
   </g>
   <g id="patch_7">
    <path d="M 350.359338 175.371072 
Q 326.250057 135.04085 288.242025 112.495288 
" clip-path="url(#pfbbcd0b2e4)" style="fill: none; stroke: #ff0000; stroke-width: 2.5; stroke-linecap: round"/>
    <path d="M 291.145942 117.008299 
L 288.242025 112.495288 
L 293.594784 112.879962 
z
" clip-path="url(#pfbbcd0b2e4)" style="fill: #ff0000; stroke: #ff0000; stroke-width: 2.5; stroke-linecap: round"/>
   </g>
   <g id="patch_8">
    <path d="M 272.789784 100.128487 
Q 238.281615 59.850704 191.210115 42.280786 
" clip-path="url(#pfbbcd0b2e4)" style="fill: none; stroke: #ff0000; stroke-width: 2.5; stroke-linecap: round"/>
    <path d="M 194.867797 46.20779 
L 191.210115 42.280786 
L 196.546328 41.710843 
z
" clip-path="url(#pfbbcd0b2e4)" style="fill: #ff0000; stroke: #ff0000; stroke-width: 2.5; stroke-linecap: round"/>
   </g>
   <g id="PathCollection_1">
    <defs>
     <path id="C0_0_46e2b144c4" d="M 0 8.660254 
C 2.296726 8.660254 4.499694 7.747755 6.123724 6.123724 
C 7.747755 4.499694 8.660254 2.296726 8.660254 -0 
C 8.660254 -2.296726 7.747755 -4.499694 6.123724 -6.123724 
C 4.499694 -7.747755 2.296726 -8.660254 0 -8.660254 
C -2.296726 -8.660254 -4.499694 -7.747755 -6.123724 -6.123724 
C -7.747755 -4.499694 -8.660254 -2.296726 -8.660254 0 
C -8.660254 2.296726 -7.747755 4.499694 -6.123724 6.123724 
C -4.499694 7.747755 -2.296726 8.660254 0 8.660254 
z
"/>
    </defs>
    <g clip-path="url(#pfbbcd0b2e4)">
     <use xlink:href="#C0_0_46e2b144c4" x="278.29376" y="106.812815" style="fill: #ff0000; stroke: #ff0000"/>
    </g>
    <g clip-path="url(#pfbbcd0b2e4)">
     <use xlink:href="#C0_0_46e2b144c4" x="165.471805" y="204.223142" style="fill: #ff0000; stroke: #ff0000"/>
    </g>
    <g clip-path="url(#pfbbcd0b2e4)">
     <use xlink:href="#C0_0_46e2b144c4" x="354.639895" y="182.8978" style="fill: #0000ff; stroke: #0000ff"/>
    </g>
    <g clip-path="url(#pfbbcd0b2e4)">
     <use xlink:href="#C0_0_46e2b144c4" x="40.214651" y="142.152908" style="fill: #0000ff; stroke: #0000ff"/>
    </g>
    <g clip-path="url(#pfbbcd0b2e4)">
     <use xlink:href="#C0_0_46e2b144c4" x="180.421485" y="38.434472" style="fill: #0000ff; stroke: #0000ff"/>
    </g>
   </g>
   <g id="text_1">
    <g clip-path="url(#pfbbcd0b2e4)">
     <!-- x1 -->
     <g transform="translate(270.92501 109.930002) scale(0.12 -0.12)">
      <defs>
       <path id="DejaVuSans-5b" d="M 3513 3500 
L 2247 1797 
L 3578 0 
L 2900 0 
L 1881 1375 
L 863 0 
L 184 0 
L 1544 1831 
L 300 3500 
L 978 3500 
L 1906 2253 
L 2834 3500 
L 3513 3500 
z
" transform="scale(0.015625)"/>
       <path id="DejaVuSans-14" d="M 794 531 
L 1825 531 
L 1825 4091 
L 703 3866 
L 703 4441 
L 1819 4666 
L 2450 4666 
L 2450 531 
L 3481 531 
L 3481 0 
L 794 0 
L 794 531 
z
" transform="scale(0.015625)"/>
      </defs>
      <use xlink:href="#DejaVuSans-5b"/>
      <use xlink:href="#DejaVuSans-14" transform="translate(59.1875 0)"/>
     </g>
    </g>
   </g>
   <g id="text_2">
    <g clip-path="url(#pfbbcd0b2e4)">
     <!-- x2 -->
     <g transform="translate(158.103055 207.340329) scale(0.12 -0.12)">
      <defs>
       <path id="DejaVuSans-15" d="M 1228 531 
L 3431 531 
L 3431 0 
L 469 0 
L 469 531 
Q 828 903 1448 1529 
Q 2069 2156 2228 2338 
Q 2531 2678 2651 2914 
Q 2772 3150 2772 3378 
Q 2772 3750 2511 3984 
Q 2250 4219 1831 4219 
Q 1534 4219 1204 4116 
Q 875 4013 500 3803 
L 500 4441 
Q 881 4594 1212 4672 
Q 1544 4750 1819 4750 
Q 2544 4750 2975 4387 
Q 3406 4025 3406 3419 
Q 3406 3131 3298 2873 
Q 3191 2616 2906 2266 
Q 2828 2175 2409 1742 
Q 1991 1309 1228 531 
z
" transform="scale(0.015625)"/>
      </defs>
      <use xlink:href="#DejaVuSans-5b"/>
      <use xlink:href="#DejaVuSans-15" transform="translate(59.1875 0)"/>
     </g>
    </g>
   </g>
   <g id="text_3">
    <g clip-path="url(#pfbbcd0b2e4)">
     <!-- y1 -->
     <g transform="translate(347.271145 186.014987) scale(0.12 -0.12)">
      <defs>
       <path id="DejaVuSans-5c" d="M 2059 -325 
Q 1816 -950 1584 -1140 
Q 1353 -1331 966 -1331 
L 506 -1331 
L 506 -850 
L 844 -850 
Q 1081 -850 1212 -737 
Q 1344 -625 1503 -206 
L 1606 56 
L 191 3500 
L 800 3500 
L 1894 763 
L 2988 3500 
L 3597 3500 
L 2059 -325 
z
" transform="scale(0.015625)"/>
      </defs>
      <use xlink:href="#DejaVuSans-5c"/>
      <use xlink:href="#DejaVuSans-14" transform="translate(59.1875 0)"/>
     </g>
    </g>
   </g>
   <g id="text_4">
    <g clip-path="url(#pfbbcd0b2e4)">
     <!-- y2 -->
     <g transform="translate(32.845901 145.270096) scale(0.12 -0.12)">
      <use xlink:href="#DejaVuSans-5c"/>
      <use xlink:href="#DejaVuSans-15" transform="translate(59.1875 0)"/>
     </g>
    </g>
   </g>
   <g id="text_5">
    <g clip-path="url(#pfbbcd0b2e4)">
     <!-- y3 -->
     <g transform="translate(173.052735 41.551659) scale(0.12 -0.12)">
      <defs>
       <path id="DejaVuSans-16" d="M 2597 2516 
Q 3050 2419 3304 2112 
Q 3559 1806 3559 1356 
Q 3559 666 3084 287 
Q 2609 -91 1734 -91 
Q 1441 -91 1130 -33 
Q 819 25 488 141 
L 488 750 
Q 750 597 1062 519 
Q 1375 441 1716 441 
Q 2309 441 2620 675 
Q 2931 909 2931 1356 
Q 2931 1769 2642 2001 
Q 2353 2234 1838 2234 
L 1294 2234 
L 1294 2753 
L 1863 2753 
Q 2328 2753 2575 2939 
Q 2822 3125 2822 3475 
Q 2822 3834 2567 4026 
Q 2313 4219 1838 4219 
Q 1578 4219 1281 4162 
Q 984 4106 628 3988 
L 628 4550 
Q 988 4650 1302 4700 
Q 1616 4750 1894 4750 
Q 2613 4750 3031 4423 
Q 3450 4097 3450 3541 
Q 3450 3153 3228 2886 
Q 3006 2619 2597 2516 
z
" transform="scale(0.015625)"/>
      </defs>
      <use xlink:href="#DejaVuSans-5c"/>
      <use xlink:href="#DejaVuSans-16" transform="translate(59.1875 0)"/>
     </g>
    </g>
   </g>
   <g id="text_6">
    <!-- Step One -->
    <g transform="translate(169.64071 16.317188) scale(0.12 -0.12)">
     <defs>
      <path id="DejaVuSans-36" d="M 3425 4513 
L 3425 3897 
Q 3066 4069 2747 4153 
Q 2428 4238 2131 4238 
Q 1616 4238 1336 4038 
Q 1056 3838 1056 3469 
Q 1056 3159 1242 3001 
Q 1428 2844 1947 2747 
L 2328 2669 
Q 3034 2534 3370 2195 
Q 3706 1856 3706 1288 
Q 3706 609 3251 259 
Q 2797 -91 1919 -91 
Q 1588 -91 1214 -16 
Q 841 59 441 206 
L 441 856 
Q 825 641 1194 531 
Q 1563 422 1919 422 
Q 2459 422 2753 634 
Q 3047 847 3047 1241 
Q 3047 1584 2836 1778 
Q 2625 1972 2144 2069 
L 1759 2144 
Q 1053 2284 737 2584 
Q 422 2884 422 3419 
Q 422 4038 858 4394 
Q 1294 4750 2059 4750 
Q 2388 4750 2728 4690 
Q 3069 4631 3425 4513 
z
" transform="scale(0.015625)"/>
      <path id="DejaVuSans-57" d="M 1172 4494 
L 1172 3500 
L 2356 3500 
L 2356 3053 
L 1172 3053 
L 1172 1153 
Q 1172 725 1289 603 
Q 1406 481 1766 481 
L 2356 481 
L 2356 0 
L 1766 0 
Q 1100 0 847 248 
Q 594 497 594 1153 
L 594 3053 
L 172 3053 
L 172 3500 
L 594 3500 
L 594 4494 
L 1172 4494 
z
" transform="scale(0.015625)"/>
      <path id="DejaVuSans-48" d="M 3597 1894 
L 3597 1613 
L 953 1613 
Q 991 1019 1311 708 
Q 1631 397 2203 397 
Q 2534 397 2845 478 
Q 3156 559 3463 722 
L 3463 178 
Q 3153 47 2828 -22 
Q 2503 -91 2169 -91 
Q 1331 -91 842 396 
Q 353 884 353 1716 
Q 353 2575 817 3079 
Q 1281 3584 2069 3584 
Q 2775 3584 3186 3129 
Q 3597 2675 3597 1894 
z
M 3022 2063 
Q 3016 2534 2758 2815 
Q 2500 3097 2075 3097 
Q 1594 3097 1305 2825 
Q 1016 2553 972 2059 
L 3022 2063 
z
" transform="scale(0.015625)"/>
      <path id="DejaVuSans-53" d="M 1159 525 
L 1159 -1331 
L 581 -1331 
L 581 3500 
L 1159 3500 
L 1159 2969 
Q 1341 3281 1617 3432 
Q 1894 3584 2278 3584 
Q 2916 3584 3314 3078 
Q 3713 2572 3713 1747 
Q 3713 922 3314 415 
Q 2916 -91 2278 -91 
Q 1894 -91 1617 61 
Q 1341 213 1159 525 
z
M 3116 1747 
Q 3116 2381 2855 2742 
Q 2594 3103 2138 3103 
Q 1681 3103 1420 2742 
Q 1159 2381 1159 1747 
Q 1159 1113 1420 752 
Q 1681 391 2138 391 
Q 2594 391 2855 752 
Q 3116 1113 3116 1747 
z
" transform="scale(0.015625)"/>
      <path id="DejaVuSans-3" transform="scale(0.015625)"/>
      <path id="DejaVuSans-32" d="M 2522 4238 
Q 1834 4238 1429 3725 
Q 1025 3213 1025 2328 
Q 1025 1447 1429 934 
Q 1834 422 2522 422 
Q 3209 422 3611 934 
Q 4013 1447 4013 2328 
Q 4013 3213 3611 3725 
Q 3209 4238 2522 4238 
z
M 2522 4750 
Q 3503 4750 4090 4092 
Q 4678 3434 4678 2328 
Q 4678 1225 4090 567 
Q 3503 -91 2522 -91 
Q 1538 -91 948 565 
Q 359 1222 359 2328 
Q 359 3434 948 4092 
Q 1538 4750 2522 4750 
z
" transform="scale(0.015625)"/>
      <path id="DejaVuSans-51" d="M 3513 2113 
L 3513 0 
L 2938 0 
L 2938 2094 
Q 2938 2591 2744 2837 
Q 2550 3084 2163 3084 
Q 1697 3084 1428 2787 
Q 1159 2491 1159 1978 
L 1159 0 
L 581 0 
L 581 3500 
L 1159 3500 
L 1159 2956 
Q 1366 3272 1645 3428 
Q 1925 3584 2291 3584 
Q 2894 3584 3203 3211 
Q 3513 2838 3513 2113 
z
" transform="scale(0.015625)"/>
     </defs>
     <use xlink:href="#DejaVuSans-36"/>
     <use xlink:href="#DejaVuSans-57" transform="translate(63.484375 0)"/>
     <use xlink:href="#DejaVuSans-48" transform="translate(102.6875 0)"/>
     <use xlink:href="#DejaVuSans-53" transform="translate(164.21875 0)"/>
     <use xlink:href="#DejaVuSans-3" transform="translate(227.703125 0)"/>
     <use xlink:href="#DejaVuSans-32" transform="translate(259.484375 0)"/>
     <use xlink:href="#DejaVuSans-51" transform="translate(338.203125 0)"/>
     <use xlink:href="#DejaVuSans-48" transform="translate(401.578125 0)"/>
    </g>
   </g>
  </g>
  <g id="axes_2">
   <g id="patch_9">
    <path d="M 679.234934 122.233104 
Q 730.760099 177.073875 801.779402 198.323384 
" clip-path="url(#pbd8b027b9a)" style="fill: none; stroke: #000000; stroke-linecap: round"/>
    <path d="M 797.868797 194.648174 
L 801.779402 198.323384 
L 796.492871 199.246742 
z
" clip-path="url(#pbd8b027b9a)" style="stroke: #000000; stroke-linecap: round"/>
   </g>
   <g id="patch_10">
    <path d="M 666.71167 110.338631 
Q 595.610496 53.264043 506.452422 40.57153 
" clip-path="url(#pbd8b027b9a)" style="fill: none; stroke: #000000; stroke-linecap: round"/>
    <path d="M 510.866257 43.624079 
L 506.452422 40.57153 
L 511.542763 38.871991 
z
" clip-path="url(#pbd8b027b9a)" style="stroke: #000000; stroke-linecap: round"/>
   </g>
   <g id="patch_11">
    <path d="M 805.348076 194.614094 
Q 753.82291 139.773323 682.803608 118.523814 
" clip-path="url(#pbd8b027b9a)" style="fill: none; stroke: #000000; stroke-linecap: round"/>
    <path d="M 686.714213 122.199024 
L 682.803608 118.523814 
L 688.090139 117.600456 
z
" clip-path="url(#pbd8b027b9a)" style="stroke: #000000; stroke-linecap: round"/>
   </g>
   <g id="patch_12">
    <path d="M 503.446096 44.797337 
Q 574.54727 101.871925 663.705343 114.564439 
" clip-path="url(#pbd8b027b9a)" style="fill: none; stroke: #000000; stroke-linecap: round"/>
    <path d="M 659.291508 111.511889 
L 663.705343 114.564439 
L 658.615002 116.263977 
z
" clip-path="url(#pbd8b027b9a)" style="stroke: #000000; stroke-linecap: round"/>
   </g>
   <g id="PathCollection_2">
    <defs>
     <path id="C1_0_59c0aaec20" d="M 0 8.660254 
C 2.296726 8.660254 4.499694 7.747755 6.123724 6.123724 
C 7.747755 4.499694 8.660254 2.296726 8.660254 -0 
C 8.660254 -2.296726 7.747755 -4.499694 6.123724 -6.123724 
C 4.499694 -7.747755 2.296726 -8.660254 0 -8.660254 
C -2.296726 -8.660254 -4.499694 -7.747755 -6.123724 -6.123724 
C -7.747755 -4.499694 -8.660254 -2.296726 -8.660254 0 
C -8.660254 2.296726 -7.747755 4.499694 -6.123724 6.123724 
C -4.499694 7.747755 -2.296726 8.660254 0 8.660254 
z
"/>
    </defs>
    <g clip-path="url(#pbd8b027b9a)">
     <use xlink:href="#C1_0_59c0aaec20" x="673.39766" y="115.839101" style="fill: #ff0000; stroke: #ff0000"/>
    </g>
    <g clip-path="url(#pbd8b027b9a)">
     <use xlink:href="#C1_0_59c0aaec20" x="811.185349" y="201.008097" style="fill: #0000ff; stroke: #0000ff"/>
    </g>
    <g clip-path="url(#pbd8b027b9a)">
     <use xlink:href="#C1_0_59c0aaec20" x="496.760105" y="39.296867" style="fill: #0000ff; stroke: #0000ff"/>
    </g>
   </g>
   <g id="text_7">
    <g clip-path="url(#pbd8b027b9a)">
     <!-- x1 -->
     <g transform="translate(666.02891 118.956289) scale(0.12 -0.12)">
      <use xlink:href="#DejaVuSans-5b"/>
      <use xlink:href="#DejaVuSans-14" transform="translate(59.1875 0)"/>
     </g>
    </g>
   </g>
   <g id="text_8">
    <g clip-path="url(#pbd8b027b9a)">
     <!-- y1 -->
     <g transform="translate(803.816599 204.125284) scale(0.12 -0.12)">
      <use xlink:href="#DejaVuSans-5c"/>
      <use xlink:href="#DejaVuSans-14" transform="translate(59.1875 0)"/>
     </g>
    </g>
   </g>
   <g id="text_9">
    <g clip-path="url(#pbd8b027b9a)">
     <!-- y3 -->
     <g transform="translate(489.391355 42.414054) scale(0.12 -0.12)">
      <use xlink:href="#DejaVuSans-5c"/>
      <use xlink:href="#DejaVuSans-16" transform="translate(59.1875 0)"/>
     </g>
    </g>
   </g>
   <g id="text_10">
    <!-- Input BMG -->
    <g transform="translate(622.587102 16.317188) scale(0.12 -0.12)">
     <defs>
      <path id="DejaVuSans-2c" d="M 628 4666 
L 1259 4666 
L 1259 0 
L 628 0 
L 628 4666 
z
" transform="scale(0.015625)"/>
      <path id="DejaVuSans-58" d="M 544 1381 
L 544 3500 
L 1119 3500 
L 1119 1403 
Q 1119 906 1312 657 
Q 1506 409 1894 409 
Q 2359 409 2629 706 
Q 2900 1003 2900 1516 
L 2900 3500 
L 3475 3500 
L 3475 0 
L 2900 0 
L 2900 538 
Q 2691 219 2414 64 
Q 2138 -91 1772 -91 
Q 1169 -91 856 284 
Q 544 659 544 1381 
z
M 1991 3584 
L 1991 3584 
z
" transform="scale(0.015625)"/>
      <path id="DejaVuSans-25" d="M 1259 2228 
L 1259 519 
L 2272 519 
Q 2781 519 3026 730 
Q 3272 941 3272 1375 
Q 3272 1813 3026 2020 
Q 2781 2228 2272 2228 
L 1259 2228 
z
M 1259 4147 
L 1259 2741 
L 2194 2741 
Q 2656 2741 2882 2914 
Q 3109 3088 3109 3444 
Q 3109 3797 2882 3972 
Q 2656 4147 2194 4147 
L 1259 4147 
z
M 628 4666 
L 2241 4666 
Q 2963 4666 3353 4366 
Q 3744 4066 3744 3513 
Q 3744 3084 3544 2831 
Q 3344 2578 2956 2516 
Q 3422 2416 3680 2098 
Q 3938 1781 3938 1306 
Q 3938 681 3513 340 
Q 3088 0 2303 0 
L 628 0 
L 628 4666 
z
" transform="scale(0.015625)"/>
      <path id="DejaVuSans-30" d="M 628 4666 
L 1569 4666 
L 2759 1491 
L 3956 4666 
L 4897 4666 
L 4897 0 
L 4281 0 
L 4281 4097 
L 3078 897 
L 2444 897 
L 1241 4097 
L 1241 0 
L 628 0 
L 628 4666 
z
" transform="scale(0.015625)"/>
      <path id="DejaVuSans-2a" d="M 3809 666 
L 3809 1919 
L 2778 1919 
L 2778 2438 
L 4434 2438 
L 4434 434 
Q 4069 175 3628 42 
Q 3188 -91 2688 -91 
Q 1594 -91 976 548 
Q 359 1188 359 2328 
Q 359 3472 976 4111 
Q 1594 4750 2688 4750 
Q 3144 4750 3555 4637 
Q 3966 4525 4313 4306 
L 4313 3634 
Q 3963 3931 3569 4081 
Q 3175 4231 2741 4231 
Q 1884 4231 1454 3753 
Q 1025 3275 1025 2328 
Q 1025 1384 1454 906 
Q 1884 428 2741 428 
Q 3075 428 3337 486 
Q 3600 544 3809 666 
z
" transform="scale(0.015625)"/>
     </defs>
     <use xlink:href="#DejaVuSans-2c"/>
     <use xlink:href="#DejaVuSans-51" transform="translate(29.5 0)"/>
     <use xlink:href="#DejaVuSans-53" transform="translate(92.875 0)"/>
     <use xlink:href="#DejaVuSans-58" transform="translate(156.359375 0)"/>
     <use xlink:href="#DejaVuSans-57" transform="translate(219.734375 0)"/>
     <use xlink:href="#DejaVuSans-3" transform="translate(258.9375 0)"/>
     <use xlink:href="#DejaVuSans-25" transform="translate(290.71875 0)"/>
     <use xlink:href="#DejaVuSans-30" transform="translate(359.328125 0)"/>
     <use xlink:href="#DejaVuSans-2a" transform="translate(445.609375 0)"/>
    </g>
   </g>
  </g>
  <g id="axes_3">
   <g id="patch_13">
    <path d="M 191.389306 280.312314 
Q 158.12254 314.531002 125.635115 347.948049 
" clip-path="url(#p1c23716ea6)" style="fill: none; stroke: #000000; stroke-linecap: round"/>
    <path d="M 129.857387 346.474137 
L 125.635115 347.948049 
L 126.989349 343.685884 
z
" clip-path="url(#p1c23716ea6)" style="stroke: #000000; stroke-linecap: round"/>
   </g>
   <g id="patch_14">
    <path d="M 203.465239 280.312314 
Q 236.732005 314.531002 269.219431 347.948049 
" clip-path="url(#p1c23716ea6)" style="fill: none; stroke: #000000; stroke-linecap: round"/>
    <path d="M 267.865197 343.685884 
L 269.219431 347.948049 
L 264.997158 346.474137 
z
" clip-path="url(#p1c23716ea6)" style="stroke: #000000; stroke-linecap: round"/>
   </g>
   <g id="patch_15">
    <path d="M 124.858928 361.167929 
Q 158.125694 395.386617 190.61312 428.803664 
" clip-path="url(#p1c23716ea6)" style="fill: none; stroke: #000000; stroke-linecap: round"/>
    <path d="M 189.258886 424.541499 
L 190.61312 428.803664 
L 186.390847 427.329752 
z
" clip-path="url(#p1c23716ea6)" style="stroke: #000000; stroke-linecap: round"/>
   </g>
   <g id="patch_16">
    <path d="M 112.782995 361.167929 
Q 79.516229 395.386617 47.028804 428.803664 
" clip-path="url(#p1c23716ea6)" style="fill: none; stroke: #000000; stroke-linecap: round"/>
    <path d="M 51.251076 427.329752 
L 47.028804 428.803664 
L 48.383038 424.541499 
z
" clip-path="url(#p1c23716ea6)" style="stroke: #000000; stroke-linecap: round"/>
   </g>
   <g id="patch_17">
    <path d="M 269.995617 361.167929 
Q 236.728851 395.386617 204.241426 428.803664 
" clip-path="url(#p1c23716ea6)" style="fill: none; stroke: #000000; stroke-linecap: round"/>
    <path d="M 208.463698 427.329752 
L 204.241426 428.803664 
L 205.59566 424.541499 
z
" clip-path="url(#p1c23716ea6)" style="stroke: #000000; stroke-linecap: round"/>
   </g>
   <g id="patch_18">
    <path d="M 282.07155 361.167929 
Q 315.338316 395.386617 347.825742 428.803664 
" clip-path="url(#p1c23716ea6)" style="fill: none; stroke: #000000; stroke-linecap: round"/>
    <path d="M 346.471508 424.541499 
L 347.825742 428.803664 
L 343.603469 427.329752 
z
" clip-path="url(#p1c23716ea6)" style="stroke: #000000; stroke-linecap: round"/>
   </g>
   <g id="PathCollection_3">
    <defs>
     <path id="C2_0_5a2ed76fc7" d="M 0 8.660254 
C 2.296726 8.660254 4.499694 7.747755 6.123724 6.123724 
C 7.747755 4.499694 8.660254 2.296726 8.660254 -0 
C 8.660254 -2.296726 7.747755 -4.499694 6.123724 -6.123724 
C 4.499694 -7.747755 2.296726 -8.660254 0 -8.660254 
C -2.296726 -8.660254 -4.499694 -7.747755 -6.123724 -6.123724 
C -7.747755 -4.499694 -8.660254 -2.296726 -8.660254 0 
C -8.660254 2.296726 -7.747755 4.499694 -6.123724 6.123724 
C -4.499694 7.747755 -2.296726 8.660254 0 8.660254 
z
"/>
    </defs>
    <g clip-path="url(#p1c23716ea6)">
     <use xlink:href="#C2_0_5a2ed76fc7" x="197.427273" y="274.101573" style="fill: #808080; stroke: #808080"/>
    </g>
    <g clip-path="url(#p1c23716ea6)">
     <use xlink:href="#C2_0_5a2ed76fc7" x="197.427273" y="435.812802" style="fill: #ff0000; stroke: #ff0000"/>
    </g>
    <g clip-path="url(#p1c23716ea6)">
     <use xlink:href="#C2_0_5a2ed76fc7" x="40.214651" y="435.812802" style="fill: #0000ff; stroke: #0000ff"/>
    </g>
    <g clip-path="url(#p1c23716ea6)">
     <use xlink:href="#C2_0_5a2ed76fc7" x="354.639895" y="435.812802" style="fill: #0000ff; stroke: #0000ff"/>
    </g>
    <g clip-path="url(#p1c23716ea6)">
     <use xlink:href="#C2_0_5a2ed76fc7" x="118.820962" y="354.957188" style="fill: #808080; stroke: #808080"/>
    </g>
    <g clip-path="url(#p1c23716ea6)">
     <use xlink:href="#C2_0_5a2ed76fc7" x="276.033584" y="354.957188" style="fill: #808080; stroke: #808080"/>
    </g>
   </g>
   <g id="text_11">
    <g clip-path="url(#p1c23716ea6)">
     <!-- rho -->
     <g transform="translate(187.59196 277.219229) scale(0.12 -0.12)">
      <defs>
       <path id="DejaVuSans-55" d="M 2631 2963 
Q 2534 3019 2420 3045 
Q 2306 3072 2169 3072 
Q 1681 3072 1420 2755 
Q 1159 2438 1159 1844 
L 1159 0 
L 581 0 
L 581 3500 
L 1159 3500 
L 1159 2956 
Q 1341 3275 1631 3429 
Q 1922 3584 2338 3584 
Q 2397 3584 2469 3576 
Q 2541 3569 2628 3553 
L 2631 2963 
z
" transform="scale(0.015625)"/>
       <path id="DejaVuSans-4b" d="M 3513 2113 
L 3513 0 
L 2938 0 
L 2938 2094 
Q 2938 2591 2744 2837 
Q 2550 3084 2163 3084 
Q 1697 3084 1428 2787 
Q 1159 2491 1159 1978 
L 1159 0 
L 581 0 
L 581 4863 
L 1159 4863 
L 1159 2956 
Q 1366 3272 1645 3428 
Q 1925 3584 2291 3584 
Q 2894 3584 3203 3211 
Q 3513 2838 3513 2113 
z
" transform="scale(0.015625)"/>
       <path id="DejaVuSans-52" d="M 1959 3097 
Q 1497 3097 1228 2736 
Q 959 2375 959 1747 
Q 959 1119 1226 758 
Q 1494 397 1959 397 
Q 2419 397 2687 759 
Q 2956 1122 2956 1747 
Q 2956 2369 2687 2733 
Q 2419 3097 1959 3097 
z
M 1959 3584 
Q 2709 3584 3137 3096 
Q 3566 2609 3566 1747 
Q 3566 888 3137 398 
Q 2709 -91 1959 -91 
Q 1206 -91 779 398 
Q 353 888 353 1747 
Q 353 2609 779 3096 
Q 1206 3584 1959 3584 
z
" transform="scale(0.015625)"/>
      </defs>
      <use xlink:href="#DejaVuSans-55"/>
      <use xlink:href="#DejaVuSans-4b" transform="translate(39.359375 0)"/>
      <use xlink:href="#DejaVuSans-52" transform="translate(102.734375 0)"/>
     </g>
    </g>
   </g>
   <g id="text_12">
    <g clip-path="url(#p1c23716ea6)">
     <!-- x1 -->
     <g transform="translate(190.058523 438.92999) scale(0.12 -0.12)">
      <use xlink:href="#DejaVuSans-5b"/>
      <use xlink:href="#DejaVuSans-14" transform="translate(59.1875 0)"/>
     </g>
    </g>
   </g>
   <g id="text_13">
    <g clip-path="url(#p1c23716ea6)">
     <!-- y1 -->
     <g transform="translate(32.845901 438.92999) scale(0.12 -0.12)">
      <use xlink:href="#DejaVuSans-5c"/>
      <use xlink:href="#DejaVuSans-14" transform="translate(59.1875 0)"/>
     </g>
    </g>
   </g>
   <g id="text_14">
    <g clip-path="url(#p1c23716ea6)">
     <!-- y3 -->
     <g transform="translate(347.271145 438.92999) scale(0.12 -0.12)">
      <use xlink:href="#DejaVuSans-5c"/>
      <use xlink:href="#DejaVuSans-16" transform="translate(59.1875 0)"/>
     </g>
    </g>
   </g>
   <g id="text_15">
    <g clip-path="url(#p1c23716ea6)">
     <!-- p_x1_y1 -->
     <g transform="translate(94.274399 358.074375) scale(0.12 -0.12)">
      <defs>
       <path id="DejaVuSans-42" d="M 3263 -1063 
L 3263 -1509 
L -63 -1509 
L -63 -1063 
L 3263 -1063 
z
" transform="scale(0.015625)"/>
      </defs>
      <use xlink:href="#DejaVuSans-53"/>
      <use xlink:href="#DejaVuSans-42" transform="translate(63.484375 0)"/>
      <use xlink:href="#DejaVuSans-5b" transform="translate(113.484375 0)"/>
      <use xlink:href="#DejaVuSans-14" transform="translate(172.671875 0)"/>
      <use xlink:href="#DejaVuSans-42" transform="translate(236.296875 0)"/>
      <use xlink:href="#DejaVuSans-5c" transform="translate(286.296875 0)"/>
      <use xlink:href="#DejaVuSans-14" transform="translate(345.484375 0)"/>
     </g>
    </g>
   </g>
   <g id="text_16">
    <g clip-path="url(#p1c23716ea6)">
     <!-- p_x1_y3 -->
     <g transform="translate(251.487021 358.074375) scale(0.12 -0.12)">
      <use xlink:href="#DejaVuSans-53"/>
      <use xlink:href="#DejaVuSans-42" transform="translate(63.484375 0)"/>
      <use xlink:href="#DejaVuSans-5b" transform="translate(113.484375 0)"/>
      <use xlink:href="#DejaVuSans-14" transform="translate(172.671875 0)"/>
      <use xlink:href="#DejaVuSans-42" transform="translate(236.296875 0)"/>
      <use xlink:href="#DejaVuSans-5c" transform="translate(286.296875 0)"/>
      <use xlink:href="#DejaVuSans-16" transform="translate(345.484375 0)"/>
     </g>
    </g>
   </g>
   <g id="text_17">
    <!-- BIC Cherry Reverse -->
    <g transform="translate(139.354773 251.121893) scale(0.12 -0.12)">
     <defs>
      <path id="DejaVuSans-26" d="M 4122 4306 
L 4122 3641 
Q 3803 3938 3442 4084 
Q 3081 4231 2675 4231 
Q 1875 4231 1450 3742 
Q 1025 3253 1025 2328 
Q 1025 1406 1450 917 
Q 1875 428 2675 428 
Q 3081 428 3442 575 
Q 3803 722 4122 1019 
L 4122 359 
Q 3791 134 3420 21 
Q 3050 -91 2638 -91 
Q 1578 -91 968 557 
Q 359 1206 359 2328 
Q 359 3453 968 4101 
Q 1578 4750 2638 4750 
Q 3056 4750 3426 4639 
Q 3797 4528 4122 4306 
z
" transform="scale(0.015625)"/>
      <path id="DejaVuSans-35" d="M 2841 2188 
Q 3044 2119 3236 1894 
Q 3428 1669 3622 1275 
L 4263 0 
L 3584 0 
L 2988 1197 
Q 2756 1666 2539 1819 
Q 2322 1972 1947 1972 
L 1259 1972 
L 1259 0 
L 628 0 
L 628 4666 
L 2053 4666 
Q 2853 4666 3247 4331 
Q 3641 3997 3641 3322 
Q 3641 2881 3436 2590 
Q 3231 2300 2841 2188 
z
M 1259 4147 
L 1259 2491 
L 2053 2491 
Q 2509 2491 2742 2702 
Q 2975 2913 2975 3322 
Q 2975 3731 2742 3939 
Q 2509 4147 2053 4147 
L 1259 4147 
z
" transform="scale(0.015625)"/>
      <path id="DejaVuSans-59" d="M 191 3500 
L 800 3500 
L 1894 563 
L 2988 3500 
L 3597 3500 
L 2284 0 
L 1503 0 
L 191 3500 
z
" transform="scale(0.015625)"/>
      <path id="DejaVuSans-56" d="M 2834 3397 
L 2834 2853 
Q 2591 2978 2328 3040 
Q 2066 3103 1784 3103 
Q 1356 3103 1142 2972 
Q 928 2841 928 2578 
Q 928 2378 1081 2264 
Q 1234 2150 1697 2047 
L 1894 2003 
Q 2506 1872 2764 1633 
Q 3022 1394 3022 966 
Q 3022 478 2636 193 
Q 2250 -91 1575 -91 
Q 1294 -91 989 -36 
Q 684 19 347 128 
L 347 722 
Q 666 556 975 473 
Q 1284 391 1588 391 
Q 1994 391 2212 530 
Q 2431 669 2431 922 
Q 2431 1156 2273 1281 
Q 2116 1406 1581 1522 
L 1381 1569 
Q 847 1681 609 1914 
Q 372 2147 372 2553 
Q 372 3047 722 3315 
Q 1072 3584 1716 3584 
Q 2034 3584 2315 3537 
Q 2597 3491 2834 3397 
z
" transform="scale(0.015625)"/>
     </defs>
     <use xlink:href="#DejaVuSans-25"/>
     <use xlink:href="#DejaVuSans-2c" transform="translate(68.609375 0)"/>
     <use xlink:href="#DejaVuSans-26" transform="translate(98.109375 0)"/>
     <use xlink:href="#DejaVuSans-3" transform="translate(167.9375 0)"/>
     <use xlink:href="#DejaVuSans-26" transform="translate(199.71875 0)"/>
     <use xlink:href="#DejaVuSans-4b" transform="translate(269.546875 0)"/>
     <use xlink:href="#DejaVuSans-48" transform="translate(332.921875 0)"/>
     <use xlink:href="#DejaVuSans-55" transform="translate(394.453125 0)"/>
     <use xlink:href="#DejaVuSans-55" transform="translate(433.8125 0)"/>
     <use xlink:href="#DejaVuSans-5c" transform="translate(474.921875 0)"/>
     <use xlink:href="#DejaVuSans-3" transform="translate(534.109375 0)"/>
     <use xlink:href="#DejaVuSans-35" transform="translate(565.890625 0)"/>
     <use xlink:href="#DejaVuSans-48" transform="translate(630.890625 0)"/>
     <use xlink:href="#DejaVuSans-59" transform="translate(692.421875 0)"/>
     <use xlink:href="#DejaVuSans-48" transform="translate(751.609375 0)"/>
     <use xlink:href="#DejaVuSans-55" transform="translate(813.140625 0)"/>
     <use xlink:href="#DejaVuSans-56" transform="translate(854.25 0)"/>
     <use xlink:href="#DejaVuSans-48" transform="translate(906.34375 0)"/>
    </g>
   </g>
  </g>
  <g id="axes_4">
   <g id="patch_19">
    <path d="M 647.934761 280.312314 
Q 614.667995 314.531002 582.180569 347.948049 
" clip-path="url(#p60779292fb)" style="fill: none; stroke: #000000; stroke-linecap: round"/>
    <path d="M 586.402842 346.474137 
L 582.180569 347.948049 
L 583.534803 343.685884 
z
" clip-path="url(#p60779292fb)" style="stroke: #000000; stroke-linecap: round"/>
   </g>
   <g id="patch_20">
    <path d="M 660.010694 280.312314 
Q 693.27746 314.531002 725.764885 347.948049 
" clip-path="url(#p60779292fb)" style="fill: none; stroke: #000000; stroke-linecap: round"/>
    <path d="M 724.410651 343.685884 
L 725.764885 347.948049 
L 721.542613 346.474137 
z
" clip-path="url(#p60779292fb)" style="stroke: #000000; stroke-linecap: round"/>
   </g>
   <g id="patch_21">
    <path d="M 581.404383 361.167929 
Q 614.671149 395.386617 647.158574 428.803664 
" clip-path="url(#p60779292fb)" style="fill: none; stroke: #000000; stroke-linecap: round"/>
    <path d="M 645.80434 424.541499 
L 647.158574 428.803664 
L 642.936302 427.329752 
z
" clip-path="url(#p60779292fb)" style="stroke: #000000; stroke-linecap: round"/>
   </g>
   <g id="patch_22">
    <path d="M 569.32845 361.167929 
Q 536.061684 395.386617 503.574258 428.803664 
" clip-path="url(#p60779292fb)" style="fill: none; stroke: #000000; stroke-linecap: round"/>
    <path d="M 507.796531 427.329752 
L 503.574258 428.803664 
L 504.928492 424.541499 
z
" clip-path="url(#p60779292fb)" style="stroke: #000000; stroke-linecap: round"/>
   </g>
   <g id="patch_23">
    <path d="M 726.541072 361.167929 
Q 693.274306 395.386617 660.78688 428.803664 
" clip-path="url(#p60779292fb)" style="fill: none; stroke: #000000; stroke-linecap: round"/>
    <path d="M 665.009153 427.329752 
L 660.78688 428.803664 
L 662.141114 424.541499 
z
" clip-path="url(#p60779292fb)" style="stroke: #000000; stroke-linecap: round"/>
   </g>
   <g id="patch_24">
    <path d="M 738.617005 361.167929 
Q 771.883771 395.386617 804.371196 428.803664 
" clip-path="url(#p60779292fb)" style="fill: none; stroke: #000000; stroke-linecap: round"/>
    <path d="M 803.016962 424.541499 
L 804.371196 428.803664 
L 800.148924 427.329752 
z
" clip-path="url(#p60779292fb)" style="stroke: #000000; stroke-linecap: round"/>
   </g>
   <g id="PathCollection_4">
    <defs>
     <path id="C3_0_b33718648e" d="M 0 8.660254 
C 2.296726 8.660254 4.499694 7.747755 6.123724 6.123724 
C 7.747755 4.499694 8.660254 2.296726 8.660254 -0 
C 8.660254 -2.296726 7.747755 -4.499694 6.123724 -6.123724 
C 4.499694 -7.747755 2.296726 -8.660254 0 -8.660254 
C -2.296726 -8.660254 -4.499694 -7.747755 -6.123724 -6.123724 
C -7.747755 -4.499694 -8.660254 -2.296726 -8.660254 0 
C -8.660254 2.296726 -7.747755 4.499694 -6.123724 6.123724 
C -4.499694 7.747755 -2.296726 8.660254 0 8.660254 
z
"/>
    </defs>
    <g clip-path="url(#p60779292fb)">
     <use xlink:href="#C3_0_b33718648e" x="653.972727" y="274.101573" style="fill: #808080; stroke: #808080"/>
    </g>
    <g clip-path="url(#p60779292fb)">
     <use xlink:href="#C3_0_b33718648e" x="575.366416" y="354.957188" style="fill: #808080; stroke: #808080"/>
    </g>
    <g clip-path="url(#p60779292fb)">
     <use xlink:href="#C3_0_b33718648e" x="653.972727" y="435.812802" style="fill: #ff0000; stroke: #ff0000"/>
    </g>
    <g clip-path="url(#p60779292fb)">
     <use xlink:href="#C3_0_b33718648e" x="496.760105" y="435.812802" style="fill: #0000ff; stroke: #0000ff"/>
    </g>
    <g clip-path="url(#p60779292fb)">
     <use xlink:href="#C3_0_b33718648e" x="732.579038" y="354.957188" style="fill: #808080; stroke: #808080"/>
    </g>
    <g clip-path="url(#p60779292fb)">
     <use xlink:href="#C3_0_b33718648e" x="811.185349" y="435.812802" style="fill: #0000ff; stroke: #0000ff"/>
    </g>
   </g>
   <g id="text_18">
    <g clip-path="url(#p60779292fb)">
     <!-- rho -->
     <g transform="translate(644.137415 277.219229) scale(0.12 -0.12)">
      <use xlink:href="#DejaVuSans-55"/>
      <use xlink:href="#DejaVuSans-4b" transform="translate(39.359375 0)"/>
      <use xlink:href="#DejaVuSans-52" transform="translate(102.734375 0)"/>
     </g>
    </g>
   </g>
   <g id="text_19">
    <g clip-path="url(#p60779292fb)">
     <!-- p_x1_y1 -->
     <g transform="translate(550.819854 358.074375) scale(0.12 -0.12)">
      <use xlink:href="#DejaVuSans-53"/>
      <use xlink:href="#DejaVuSans-42" transform="translate(63.484375 0)"/>
      <use xlink:href="#DejaVuSans-5b" transform="translate(113.484375 0)"/>
      <use xlink:href="#DejaVuSans-14" transform="translate(172.671875 0)"/>
      <use xlink:href="#DejaVuSans-42" transform="translate(236.296875 0)"/>
      <use xlink:href="#DejaVuSans-5c" transform="translate(286.296875 0)"/>
      <use xlink:href="#DejaVuSans-14" transform="translate(345.484375 0)"/>
     </g>
    </g>
   </g>
   <g id="text_20">
    <g clip-path="url(#p60779292fb)">
     <!-- x1 -->
     <g transform="translate(646.603977 438.92999) scale(0.12 -0.12)">
      <use xlink:href="#DejaVuSans-5b"/>
      <use xlink:href="#DejaVuSans-14" transform="translate(59.1875 0)"/>
     </g>
    </g>
   </g>
   <g id="text_21">
    <g clip-path="url(#p60779292fb)">
     <!-- y1 -->
     <g transform="translate(489.391355 438.92999) scale(0.12 -0.12)">
      <use xlink:href="#DejaVuSans-5c"/>
      <use xlink:href="#DejaVuSans-14" transform="translate(59.1875 0)"/>
     </g>
    </g>
   </g>
   <g id="text_22">
    <g clip-path="url(#p60779292fb)">
     <!-- p_x1_y3 -->
     <g transform="translate(708.032476 358.074375) scale(0.12 -0.12)">
      <use xlink:href="#DejaVuSans-53"/>
      <use xlink:href="#DejaVuSans-42" transform="translate(63.484375 0)"/>
      <use xlink:href="#DejaVuSans-5b" transform="translate(113.484375 0)"/>
      <use xlink:href="#DejaVuSans-14" transform="translate(172.671875 0)"/>
      <use xlink:href="#DejaVuSans-42" transform="translate(236.296875 0)"/>
      <use xlink:href="#DejaVuSans-5c" transform="translate(286.296875 0)"/>
      <use xlink:href="#DejaVuSans-16" transform="translate(345.484375 0)"/>
     </g>
    </g>
   </g>
   <g id="text_23">
    <g clip-path="url(#p60779292fb)">
     <!-- y3 -->
     <g transform="translate(803.816599 438.92999) scale(0.12 -0.12)">
      <use xlink:href="#DejaVuSans-5c"/>
      <use xlink:href="#DejaVuSans-16" transform="translate(59.1875 0)"/>
     </g>
    </g>
   </g>
   <g id="text_24">
    <!-- BIC Cherry Restrict -->
    <g transform="translate(597.164915 251.121893) scale(0.12 -0.12)">
     <defs>
      <path id="DejaVuSans-4c" d="M 603 3500 
L 1178 3500 
L 1178 0 
L 603 0 
L 603 3500 
z
M 603 4863 
L 1178 4863 
L 1178 4134 
L 603 4134 
L 603 4863 
z
" transform="scale(0.015625)"/>
      <path id="DejaVuSans-46" d="M 3122 3366 
L 3122 2828 
Q 2878 2963 2633 3030 
Q 2388 3097 2138 3097 
Q 1578 3097 1268 2742 
Q 959 2388 959 1747 
Q 959 1106 1268 751 
Q 1578 397 2138 397 
Q 2388 397 2633 464 
Q 2878 531 3122 666 
L 3122 134 
Q 2881 22 2623 -34 
Q 2366 -91 2075 -91 
Q 1284 -91 818 406 
Q 353 903 353 1747 
Q 353 2603 823 3093 
Q 1294 3584 2113 3584 
Q 2378 3584 2631 3529 
Q 2884 3475 3122 3366 
z
" transform="scale(0.015625)"/>
     </defs>
     <use xlink:href="#DejaVuSans-25"/>
     <use xlink:href="#DejaVuSans-2c" transform="translate(68.609375 0)"/>
     <use xlink:href="#DejaVuSans-26" transform="translate(98.109375 0)"/>
     <use xlink:href="#DejaVuSans-3" transform="translate(167.9375 0)"/>
     <use xlink:href="#DejaVuSans-26" transform="translate(199.71875 0)"/>
     <use xlink:href="#DejaVuSans-4b" transform="translate(269.546875 0)"/>
     <use xlink:href="#DejaVuSans-48" transform="translate(332.921875 0)"/>
     <use xlink:href="#DejaVuSans-55" transform="translate(394.453125 0)"/>
     <use xlink:href="#DejaVuSans-55" transform="translate(433.8125 0)"/>
     <use xlink:href="#DejaVuSans-5c" transform="translate(474.921875 0)"/>
     <use xlink:href="#DejaVuSans-3" transform="translate(534.109375 0)"/>
     <use xlink:href="#DejaVuSans-35" transform="translate(565.890625 0)"/>
     <use xlink:href="#DejaVuSans-48" transform="translate(630.890625 0)"/>
     <use xlink:href="#DejaVuSans-56" transform="translate(692.421875 0)"/>
     <use xlink:href="#DejaVuSans-57" transform="translate(744.515625 0)"/>
     <use xlink:href="#DejaVuSans-55" transform="translate(783.71875 0)"/>
     <use xlink:href="#DejaVuSans-4c" transform="translate(824.828125 0)"/>
     <use xlink:href="#DejaVuSans-46" transform="translate(852.609375 0)"/>
     <use xlink:href="#DejaVuSans-57" transform="translate(907.59375 0)"/>
    </g>
   </g>
  </g>
  <g id="axes_5">
   <g id="patch_25">
    <path d="M 222.689479 591.842516 
Q 274.214645 646.683287 345.233947 667.932796 
" clip-path="url(#p519a28993f)" style="fill: none; stroke: #000000; stroke-linecap: round"/>
    <path d="M 341.323342 664.257586 
L 345.233947 667.932796 
L 339.947416 668.856154 
z
" clip-path="url(#p519a28993f)" style="stroke: #000000; stroke-linecap: round"/>
   </g>
   <g id="patch_26">
    <path d="M 210.166215 579.948043 
Q 139.065041 522.873455 49.906968 510.180941 
" clip-path="url(#p519a28993f)" style="fill: none; stroke: #000000; stroke-linecap: round"/>
    <path d="M 54.320803 513.233491 
L 49.906968 510.180941 
L 54.997309 508.481403 
z
" clip-path="url(#p519a28993f)" style="stroke: #000000; stroke-linecap: round"/>
   </g>
   <g id="patch_27">
    <path d="M 348.802622 664.223506 
Q 297.277456 609.382734 226.258153 588.133226 
" clip-path="url(#p519a28993f)" style="fill: none; stroke: #000000; stroke-linecap: round"/>
    <path d="M 230.168758 591.808436 
L 226.258153 588.133226 
L 231.544684 587.209868 
z
" clip-path="url(#p519a28993f)" style="stroke: #000000; stroke-linecap: round"/>
   </g>
   <g id="patch_28">
    <path d="M 46.900641 514.406749 
Q 118.001815 571.481337 207.159889 584.17385 
" clip-path="url(#p519a28993f)" style="fill: none; stroke: #000000; stroke-linecap: round"/>
    <path d="M 202.746054 581.121301 
L 207.159889 584.17385 
L 202.069548 585.873389 
z
" clip-path="url(#p519a28993f)" style="stroke: #000000; stroke-linecap: round"/>
   </g>
   <g id="PathCollection_5">
    <defs>
     <path id="C4_0_989c1dcba2" d="M 0 8.660254 
C 2.296726 8.660254 4.499694 7.747755 6.123724 6.123724 
C 7.747755 4.499694 8.660254 2.296726 8.660254 -0 
C 8.660254 -2.296726 7.747755 -4.499694 6.123724 -6.123724 
C 4.499694 -7.747755 2.296726 -8.660254 0 -8.660254 
C -2.296726 -8.660254 -4.499694 -7.747755 -6.123724 -6.123724 
C -7.747755 -4.499694 -8.660254 -2.296726 -8.660254 0 
C -8.660254 2.296726 -7.747755 4.499694 -6.123724 6.123724 
C -4.499694 7.747755 -2.296726 8.660254 0 8.660254 
z
"/>
    </defs>
    <g clip-path="url(#p519a28993f)">
     <use xlink:href="#C4_0_989c1dcba2" x="216.852206" y="585.448513" style="fill: #ff0000; stroke: #ff0000"/>
    </g>
    <g clip-path="url(#p519a28993f)">
     <use xlink:href="#C4_0_989c1dcba2" x="354.639895" y="670.617508" style="fill: #0000ff; stroke: #0000ff"/>
    </g>
    <g clip-path="url(#p519a28993f)">
     <use xlink:href="#C4_0_989c1dcba2" x="40.214651" y="508.906278" style="fill: #0000ff; stroke: #0000ff"/>
    </g>
   </g>
   <g id="text_25">
    <g clip-path="url(#p519a28993f)">
     <!-- x1 -->
     <g transform="translate(209.483456 588.565701) scale(0.12 -0.12)">
      <use xlink:href="#DejaVuSans-5b"/>
      <use xlink:href="#DejaVuSans-14" transform="translate(59.1875 0)"/>
     </g>
    </g>
   </g>
   <g id="text_26">
    <g clip-path="url(#p519a28993f)">
     <!-- y1 -->
     <g transform="translate(347.271145 673.734696) scale(0.12 -0.12)">
      <use xlink:href="#DejaVuSans-5c"/>
      <use xlink:href="#DejaVuSans-14" transform="translate(59.1875 0)"/>
     </g>
    </g>
   </g>
   <g id="text_27">
    <g clip-path="url(#p519a28993f)">
     <!-- y3 -->
     <g transform="translate(32.845901 512.023466) scale(0.12 -0.12)">
      <use xlink:href="#DejaVuSans-5c"/>
      <use xlink:href="#DejaVuSans-16" transform="translate(59.1875 0)"/>
     </g>
    </g>
   </g>
   <g id="text_28">
    <g id="patch_29">
     <path d="M 315.553057 569.742873 
L 398.971807 569.742873 
L 398.971807 549.822873 
L 315.553057 549.822873 
z
" style="fill: #ffa500; opacity: 0.5; stroke: #000000; stroke-linejoin: miter"/>
    </g>
    <!-- Correct BMG -->
    <g transform="translate(319.513057 562.90006) scale(0.12 -0.12)">
     <use xlink:href="#DejaVuSans-26"/>
     <use xlink:href="#DejaVuSans-52" transform="translate(69.828125 0)"/>
     <use xlink:href="#DejaVuSans-55" transform="translate(131.015625 0)"/>
     <use xlink:href="#DejaVuSans-55" transform="translate(170.375 0)"/>
     <use xlink:href="#DejaVuSans-48" transform="translate(209.28125 0)"/>
     <use xlink:href="#DejaVuSans-46" transform="translate(270.8125 0)"/>
     <use xlink:href="#DejaVuSans-57" transform="translate(325.796875 0)"/>
     <use xlink:href="#DejaVuSans-3" transform="translate(365 0)"/>
     <use xlink:href="#DejaVuSans-25" transform="translate(396.78125 0)"/>
     <use xlink:href="#DejaVuSans-30" transform="translate(465.390625 0)"/>
     <use xlink:href="#DejaVuSans-2a" transform="translate(551.671875 0)"/>
    </g>
   </g>
   <g id="text_29">
    <!-- BIC Cherry Reverse BMG -->
    <g transform="translate(123.505398 485.926599) scale(0.12 -0.12)">
     <use xlink:href="#DejaVuSans-25"/>
     <use xlink:href="#DejaVuSans-2c" transform="translate(68.609375 0)"/>
     <use xlink:href="#DejaVuSans-26" transform="translate(98.109375 0)"/>
     <use xlink:href="#DejaVuSans-3" transform="translate(167.9375 0)"/>
     <use xlink:href="#DejaVuSans-26" transform="translate(199.71875 0)"/>
     <use xlink:href="#DejaVuSans-4b" transform="translate(269.546875 0)"/>
     <use xlink:href="#DejaVuSans-48" transform="translate(332.921875 0)"/>
     <use xlink:href="#DejaVuSans-55" transform="translate(394.453125 0)"/>
     <use xlink:href="#DejaVuSans-55" transform="translate(433.8125 0)"/>
     <use xlink:href="#DejaVuSans-5c" transform="translate(474.921875 0)"/>
     <use xlink:href="#DejaVuSans-3" transform="translate(534.109375 0)"/>
     <use xlink:href="#DejaVuSans-35" transform="translate(565.890625 0)"/>
     <use xlink:href="#DejaVuSans-48" transform="translate(630.890625 0)"/>
     <use xlink:href="#DejaVuSans-59" transform="translate(692.421875 0)"/>
     <use xlink:href="#DejaVuSans-48" transform="translate(751.609375 0)"/>
     <use xlink:href="#DejaVuSans-55" transform="translate(813.140625 0)"/>
     <use xlink:href="#DejaVuSans-56" transform="translate(854.25 0)"/>
     <use xlink:href="#DejaVuSans-48" transform="translate(906.34375 0)"/>
     <use xlink:href="#DejaVuSans-3" transform="translate(967.875 0)"/>
     <use xlink:href="#DejaVuSans-25" transform="translate(999.65625 0)"/>
     <use xlink:href="#DejaVuSans-30" transform="translate(1068.265625 0)"/>
     <use xlink:href="#DejaVuSans-2a" transform="translate(1154.546875 0)"/>
    </g>
   </g>
  </g>
  <g id="axes_6">
   <g id="patch_30">
    <path d="M 679.234934 591.842516 
Q 730.760099 646.683287 801.779402 667.932796 
" clip-path="url(#p045ea01d93)" style="fill: none; stroke: #000000; stroke-linecap: round"/>
    <path d="M 797.868797 664.257586 
L 801.779402 667.932796 
L 796.492871 668.856154 
z
" clip-path="url(#p045ea01d93)" style="stroke: #000000; stroke-linecap: round"/>
   </g>
   <g id="patch_31">
    <path d="M 666.71167 579.948043 
Q 595.610496 522.873455 506.452422 510.180941 
" clip-path="url(#p045ea01d93)" style="fill: none; stroke: #000000; stroke-linecap: round"/>
    <path d="M 510.866257 513.233491 
L 506.452422 510.180941 
L 511.542763 508.481403 
z
" clip-path="url(#p045ea01d93)" style="stroke: #000000; stroke-linecap: round"/>
   </g>
   <g id="patch_32">
    <path d="M 805.348076 664.223506 
Q 753.82291 609.382734 682.803608 588.133226 
" clip-path="url(#p045ea01d93)" style="fill: none; stroke: #000000; stroke-linecap: round"/>
    <path d="M 686.714213 591.808436 
L 682.803608 588.133226 
L 688.090139 587.209868 
z
" clip-path="url(#p045ea01d93)" style="stroke: #000000; stroke-linecap: round"/>
   </g>
   <g id="patch_33">
    <path d="M 503.446096 514.406749 
Q 574.54727 571.481337 663.705343 584.17385 
" clip-path="url(#p045ea01d93)" style="fill: none; stroke: #000000; stroke-linecap: round"/>
    <path d="M 659.291508 581.121301 
L 663.705343 584.17385 
L 658.615002 585.873389 
z
" clip-path="url(#p045ea01d93)" style="stroke: #000000; stroke-linecap: round"/>
   </g>
   <g id="PathCollection_6">
    <defs>
     <path id="C5_0_b8c2d25bee" d="M 0 8.660254 
C 2.296726 8.660254 4.499694 7.747755 6.123724 6.123724 
C 7.747755 4.499694 8.660254 2.296726 8.660254 -0 
C 8.660254 -2.296726 7.747755 -4.499694 6.123724 -6.123724 
C 4.499694 -7.747755 2.296726 -8.660254 0 -8.660254 
C -2.296726 -8.660254 -4.499694 -7.747755 -6.123724 -6.123724 
C -7.747755 -4.499694 -8.660254 -2.296726 -8.660254 0 
C -8.660254 2.296726 -7.747755 4.499694 -6.123724 6.123724 
C -4.499694 7.747755 -2.296726 8.660254 0 8.660254 
z
"/>
    </defs>
    <g clip-path="url(#p045ea01d93)">
     <use xlink:href="#C5_0_b8c2d25bee" x="673.39766" y="585.448513" style="fill: #ff0000; stroke: #ff0000"/>
    </g>
    <g clip-path="url(#p045ea01d93)">
     <use xlink:href="#C5_0_b8c2d25bee" x="811.185349" y="670.617508" style="fill: #0000ff; stroke: #0000ff"/>
    </g>
    <g clip-path="url(#p045ea01d93)">
     <use xlink:href="#C5_0_b8c2d25bee" x="496.760105" y="508.906278" style="fill: #0000ff; stroke: #0000ff"/>
    </g>
   </g>
   <g id="text_30">
    <g clip-path="url(#p045ea01d93)">
     <!-- x1 -->
     <g transform="translate(666.02891 588.565701) scale(0.12 -0.12)">
      <use xlink:href="#DejaVuSans-5b"/>
      <use xlink:href="#DejaVuSans-14" transform="translate(59.1875 0)"/>
     </g>
    </g>
   </g>
   <g id="text_31">
    <g clip-path="url(#p045ea01d93)">
     <!-- y1 -->
     <g transform="translate(803.816599 673.734696) scale(0.12 -0.12)">
      <use xlink:href="#DejaVuSans-5c"/>
      <use xlink:href="#DejaVuSans-14" transform="translate(59.1875 0)"/>
     </g>
    </g>
   </g>
   <g id="text_32">
    <g clip-path="url(#p045ea01d93)">
     <!-- y3 -->
     <g transform="translate(489.391355 512.023466) scale(0.12 -0.12)">
      <use xlink:href="#DejaVuSans-5c"/>
      <use xlink:href="#DejaVuSans-16" transform="translate(59.1875 0)"/>
     </g>
    </g>
   </g>
   <g id="text_33">
    <g id="patch_34">
     <path d="M 772.098512 569.742873 
L 855.517262 569.742873 
L 855.517262 549.822873 
L 772.098512 549.822873 
z
" style="fill: #ffa500; opacity: 0.5; stroke: #000000; stroke-linejoin: miter"/>
    </g>
    <!-- Correct BMG -->
    <g transform="translate(776.058512 562.90006) scale(0.12 -0.12)">
     <use xlink:href="#DejaVuSans-26"/>
     <use xlink:href="#DejaVuSans-52" transform="translate(69.828125 0)"/>
     <use xlink:href="#DejaVuSans-55" transform="translate(131.015625 0)"/>
     <use xlink:href="#DejaVuSans-55" transform="translate(170.375 0)"/>
     <use xlink:href="#DejaVuSans-48" transform="translate(209.28125 0)"/>
     <use xlink:href="#DejaVuSans-46" transform="translate(270.8125 0)"/>
     <use xlink:href="#DejaVuSans-57" transform="translate(325.796875 0)"/>
     <use xlink:href="#DejaVuSans-3" transform="translate(365 0)"/>
     <use xlink:href="#DejaVuSans-25" transform="translate(396.78125 0)"/>
     <use xlink:href="#DejaVuSans-30" transform="translate(465.390625 0)"/>
     <use xlink:href="#DejaVuSans-2a" transform="translate(551.671875 0)"/>
    </g>
   </g>
   <g id="text_34">
    <!-- BIC Cherry Restrict BMG -->
    <g transform="translate(581.31554 485.926599) scale(0.12 -0.12)">
     <use xlink:href="#DejaVuSans-25"/>
     <use xlink:href="#DejaVuSans-2c" transform="translate(68.609375 0)"/>
     <use xlink:href="#DejaVuSans-26" transform="translate(98.109375 0)"/>
     <use xlink:href="#DejaVuSans-3" transform="translate(167.9375 0)"/>
     <use xlink:href="#DejaVuSans-26" transform="translate(199.71875 0)"/>
     <use xlink:href="#DejaVuSans-4b" transform="translate(269.546875 0)"/>
     <use xlink:href="#DejaVuSans-48" transform="translate(332.921875 0)"/>
     <use xlink:href="#DejaVuSans-55" transform="translate(394.453125 0)"/>
     <use xlink:href="#DejaVuSans-55" transform="translate(433.8125 0)"/>
     <use xlink:href="#DejaVuSans-5c" transform="translate(474.921875 0)"/>
     <use xlink:href="#DejaVuSans-3" transform="translate(534.109375 0)"/>
     <use xlink:href="#DejaVuSans-35" transform="translate(565.890625 0)"/>
     <use xlink:href="#DejaVuSans-48" transform="translate(630.890625 0)"/>
     <use xlink:href="#DejaVuSans-56" transform="translate(692.421875 0)"/>
     <use xlink:href="#DejaVuSans-57" transform="translate(744.515625 0)"/>
     <use xlink:href="#DejaVuSans-55" transform="translate(783.71875 0)"/>
     <use xlink:href="#DejaVuSans-4c" transform="translate(824.828125 0)"/>
     <use xlink:href="#DejaVuSans-46" transform="translate(852.609375 0)"/>
     <use xlink:href="#DejaVuSans-57" transform="translate(907.59375 0)"/>
     <use xlink:href="#DejaVuSans-3" transform="translate(946.796875 0)"/>
     <use xlink:href="#DejaVuSans-25" transform="translate(978.578125 0)"/>
     <use xlink:href="#DejaVuSans-30" transform="translate(1047.1875 0)"/>
     <use xlink:href="#DejaVuSans-2a" transform="translate(1133.46875 0)"/>
    </g>
   </g>
  </g>
 </g>
 <defs>
  <clipPath id="pfbbcd0b2e4">
   <rect x="7.2" y="22.317188" width="380.454545" height="195.670588"/>
  </clipPath>
  <clipPath id="pbd8b027b9a">
   <rect x="463.745455" y="22.317188" width="380.454545" height="195.670588"/>
  </clipPath>
  <clipPath id="p1c23716ea6">
   <rect x="7.2" y="257.121893" width="380.454545" height="195.670588"/>
  </clipPath>
  <clipPath id="p60779292fb">
   <rect x="463.745455" y="257.121893" width="380.454545" height="195.670588"/>
  </clipPath>
  <clipPath id="p519a28993f">
   <rect x="7.2" y="491.926599" width="380.454545" height="195.670588"/>
  </clipPath>
  <clipPath id="p045ea01d93">
   <rect x="463.745455" y="491.926599" width="380.454545" height="195.670588"/>
  </clipPath>
 </defs>
</svg>
